<?xml version="1.0" encoding="utf-8"?>
<!-- Generator: Adobe Illustrator 23.0.3, SVG Export Plug-In . SVG Version: 6.00 Build 0)  -->
<svg version="1.1" id="Layer_1" xmlns="http://www.w3.org/2000/svg" xmlns:xlink="http://www.w3.org/1999/xlink" x="0px" y="0px"
	 viewBox="0 0 200 200" style="enable-background:new 0 0 200 200;" xml:space="preserve">
<g>
	<circle cx="52.7" cy="60.6" r="15.8"/>
	<circle cx="147.3" cy="60.6" r="15.8"/>
	<path d="M131.5,155.1c-10.3,0-18.8-8.4-18.8-18.8c0-7-5.7-12.8-12.8-12.8c-7,0-12.8,5.7-12.8,12.8c0,10.3-8.4,18.8-18.8,18.8
		c-10.3,0-18.8-8.4-18.8-18.8c0-7-5.7-12.8-12.8-12.8c-7,0-12.8,5.7-12.8,12.8c0,1.7-1.3,3-3,3s-3-1.3-3-3
		c0-10.3,8.4-18.8,18.8-18.8c10.3,0,18.8,8.4,18.8,18.8c0,7,5.7,12.8,12.8,12.8c7,0,12.8-5.7,12.8-12.8c0-10.3,8.4-18.8,18.8-18.8
		c10.3,0,18.8,8.4,18.8,18.8c0,7,5.7,12.8,12.8,12.8c7,0,12.8-5.7,12.8-12.8c0-10.3,8.4-18.8,18.8-18.8s18.8,8.4,18.8,18.8
		c0,1.7-1.3,3-3,3s-3-1.3-3-3c0-7-5.7-12.8-12.8-12.8s-12.8,5.7-12.8,12.8C150.3,146.7,141.9,155.1,131.5,155.1z"/>
</g>
</svg>
