<svg enable-background="new 0 0 200 200" viewBox="0 0 200 200" xmlns="http://www.w3.org/2000/svg"><circle cx="52.7" cy="60.6" r="15.8"/><circle cx="147.3" cy="60.6" r="15.8"/><path d="m131.5 155.1c-10.3 0-18.8-8.4-18.8-18.8 0-7-5.7-12.8-12.8-12.8-7 0-12.8 5.7-12.8 12.8 0 10.3-8.4 18.8-18.8 18.8-10.3 0-18.8-8.4-18.8-18.8 0-7-5.7-12.8-12.8-12.8-7 0-12.8 5.7-12.8 12.8 0 1.7-1.3 3-3 3s-3-1.3-3-3c0-10.3 8.4-18.8 18.8-18.8 10.3 0 18.8 8.4 18.8 18.8 0 7 5.7 12.8 12.8 12.8 7 0 12.8-5.7 12.8-12.8 0-10.3 8.4-18.8 18.8-18.8 10.3 0 18.8 8.4 18.8 18.8 0 7 5.7 12.8 12.8 12.8 7 0 12.8-5.7 12.8-12.8 0-10.3 8.4-18.8 18.8-18.8s18.8 8.4 18.8 18.8c0 1.7-1.3 3-3 3s-3-1.3-3-3c0-7-5.7-12.8-12.8-12.8s-12.8 5.7-12.8 12.8c0 10.4-8.4 18.8-18.8 18.8z"/></svg>